<svg width="36" height="36" viewBox="0 0 36 36" xmlns="http://www.w3.org/2000/svg">
<path d="M35.9819 12.1061L34.4722 20.767C34.2861 21.7238 33.5238 22.3055 32.6447 22.3164H10.635L10.198 24.7796H31.1748C32.2793 24.8635 33.0286 25.646 33.0421 26.6468C32.9617 27.7491 32.1793 28.5004 31.1748 28.514H7.97319C6.71838 28.4012 5.97015 27.401 6.10593 26.2892L7.09914 20.8861L5.58945 5.70972L1.29876 4.35904C0.250227 3.94273 -0.177723 2.99419 0.0671668 2.01505C0.474357 0.994595 1.45005 0.528365 2.41116 0.783455L7.89372 2.53153C8.63232 2.8084 9.05721 3.41299 9.16503 4.12069L9.48285 7.14007L34.353 9.92107C35.4957 10.1686 36.1161 11.0737 35.9819 12.1061ZM13.6582 32.4347C13.6582 34.009 12.382 35.2852 10.8076 35.2852C9.23331 35.2852 7.95711 34.009 7.95711 32.4347C7.95711 30.8604 9.23334 29.5841 10.8076 29.5841C12.3819 29.5842 13.6582 30.8604 13.6582 32.4347ZM30.6757 32.4347C30.6757 34.009 29.3995 35.2852 27.8251 35.2852C26.2508 35.2852 24.9746 34.009 24.9746 32.4347C24.9746 30.8604 26.2508 29.5841 27.8251 29.5841C29.3995 29.5842 30.6757 30.8604 30.6757 32.4347Z" fill="#BF0413"/>
</svg>
